<svg height="448pt" viewBox="0 0 448 448.00393" width="448pt" xmlns="http://www.w3.org/2000/svg"><path d="m72.003906 296.003906c0 17.671875-14.328125 32-32 32-17.675781 0-32-14.328125-32-32s14.324219-32 32-32c17.671875 0 32 14.328125 32 32zm0 0"/><path d="m304.003906 224.003906c48.101563.136719 87.386719-38.402344 88.175782-86.5.792968-48.097656-37.207032-87.902344-85.289063-89.347656-2.765625-.089844-5.289063-1.601562-6.671875-4-18.472656-32.210938-55.199219-49.332031-91.746094-42.773438-36.550781 6.558594-65.03125 35.382813-71.152344 72.003907-.570312 3.941406-4.019531 6.820312-8 6.679687-.160156 0-1.015624-.0625-1.132812-.054687-25.902344-.304688-49.96875 13.328125-63.027344 35.699219-13.058594 22.371093-13.09375 50.03125-.09375 72.433593 13 22.402344 37.035156 36.097657 62.9375 35.859375zm0 0"/><path d="m88.003906 368.003906c-22.09375 0-40 17.910156-40 40s17.90625 40 40 40c22.089844 0 40-17.910156 40-40-.027344-22.082031-17.921875-39.972656-40-40zm24 48h-16v16h-16v-16h-16v-16h16v-16h16v16h16zm0 0"/><path d="m78.785156 352.804688c-3.117187-9.96875-12.335937-16.769532-22.78125-16.800782h-32c-13.257812 0-23.99999975 10.746094-23.99999975 24v56h32.63671875c-4.640625-30.179687 15.988281-58.433594 46.144531-63.199218zm0 0"/><path d="m304.003906 416.003906h16v-56c.027344-8.683594 2.910156-17.117187 8.207032-24h-.207032c-13.257812 0-24 10.746094-24 24zm0 0"/><path d="m448.003906 416.003906v-56c0-13.253906-10.746094-24-24-24h-.210937c5.296875 6.882813 8.179687 15.316406 8.210937 24v56zm0 0"/><path d="m416.003906 360.003906c0-13.253906-10.746094-24-24-24h-32c-13.257812 0-24 10.746094-24 24v56h80zm0 0"/><path d="m400.003906 296.003906c0 13.253906-10.746094 24-24 24-13.257812 0-24-10.746094-24-24s10.742188-24 24-24c13.253906 0 24 10.746094 24 24zm0 0"/><path d="m344.003906 320.003906h.183594c-10.917969-14.121094-10.917969-33.832031 0-47.953125-.066406 0-.121094 0-.183594 0-13.257812 0-24 10.746094-24 24 0 13.257813 10.742188 24 24 24zm0 0"/><path d="m408.003906 320.003906c13.253906 0 24-10.746094 24-24s-10.746094-24-24-24c-.066406 0-.121094 0-.1875 0 10.917969 14.121094 10.917969 33.832032 0 47.953125.066406.046875.121094.046875.1875.046875zm0 0"/><path d="m240.003906 352.003906c0 8.835938-7.164062 16-16 16-8.839844 0-16-7.164062-16-16 0-8.835937 7.160156-16 16-16 8.835938 0 16 7.164063 16 16zm0 0"/><path d="m193.042969 344.003906c-1.386719 5.242188-1.386719 10.757813 0 16h-98.082031v-16zm0 0"/><path d="m232.003906 240.003906v81.039063c-5.246094-1.386719-10.757812-1.386719-16 0v-81.039063zm0 0"/><path d="m289.042969 344.003906v16h-34.082031c1.386718-5.242187 1.386718-10.757812 0-16zm0 0"/></svg>